<svg xmlns="http://www.w3.org/2000/svg" width="20" height="21" viewBox="0 0 20 21" fill="none">
  <path fill-rule="evenodd" clip-rule="evenodd" d="M13.2331 3.2238C13.4433 2.26341 14.8115 2.25767 15.0321 3.21691L15.0424 3.26286L15.0619 3.35132C15.3147 4.42544 16.1832 5.24453 17.2699 5.43408C18.2717 5.6087 18.2717 7.04699 17.2699 7.2216C16.7358 7.31519 16.2411 7.56422 15.8477 7.93754C15.4544 8.31086 15.1798 8.7919 15.0585 9.32045L15.0321 9.43763C14.8138 10.3969 13.4444 10.3911 13.2342 9.42958L13.2124 9.32964C13.0964 8.79874 12.8249 8.31444 12.4324 7.93856C12.04 7.56268 11.5444 7.31228 11.009 7.21931C10.0096 7.04584 10.0096 5.60985 11.009 5.43523C11.5423 5.34244 12.036 5.09345 12.4276 4.71982C12.8193 4.34618 13.0912 3.8647 13.2089 3.33639L13.225 3.26171L13.2331 3.2238ZM10.7942 8.44852C8.63904 8.07401 8.43571 5.23764 10.183 4.39672C10.0268 4.11565 9.86174 3.83956 9.68789 3.56844C9.50605 3.56227 9.32406 3.56227 9.14222 3.56844C7.84199 5.60105 7.04164 7.91271 6.80672 10.3142H12.0257C11.9912 9.96952 11.9453 9.62718 11.8878 9.28713C11.7865 9.07007 11.6345 8.88056 11.4445 8.73461C11.2546 8.58865 11.0323 8.49053 10.7965 8.44852H10.7942ZM1.98179 10.3142C2.12583 8.83213 2.70899 7.42685 3.65658 6.27828C4.60417 5.12971 5.87305 4.29015 7.3007 3.86713C6.22602 5.86316 5.56713 8.05634 5.36384 10.3142H1.97949H1.98179ZM1.99213 11.7501H5.36499C5.56793 14.0079 6.22642 16.2011 7.3007 18.1972C5.87284 17.7743 4.60371 16.9349 3.6559 15.7863C2.7081 14.6377 2.12477 13.2323 1.98064 11.7501H1.99213ZM6.80672 11.7501C7.04199 14.1517 7.84273 16.4634 9.14337 18.4959C9.3252 18.502 9.5072 18.502 9.68904 18.4959C10.9897 16.4634 11.7904 14.1517 12.0257 11.7501H6.80672ZM16.8506 11.7501C16.7066 13.2322 16.1234 14.6375 15.1758 15.786C14.2282 16.9346 12.9594 17.7742 11.5317 18.1972C12.606 16.2011 13.2645 14.0079 13.4674 11.7501H16.8506Z" fill="url(#paint0_linear_3628_15042)"/>
  <defs>
    <linearGradient id="paint0_linear_3628_15042" x1="2.3032" y1="4.94947" x2="18.2677" y2="5.24636" gradientUnits="userSpaceOnUse">
      <stop stop-color="#FF1CF7"/>
      <stop offset="1" stop-color="#00F0FF"/>
    </linearGradient>
  </defs>
</svg>