<svg width="33" height="36" viewBox="0 0 33 36" fill="none" xmlns="http://www.w3.org/2000/svg">
<path d="M16.3372 14.4933H12.2529L18.3793 24.9967L20.4214 21.507L16.3372 14.4933Z" fill="#1C252C"/>
<path d="M4.08426 21.5072L0 28.4867H8.16851L4.08426 21.5072Z" fill="#1C252C"/>
<path d="M6.125 17.9831L12.2514 28.4865H16.3356L8.16713 14.4933L6.125 17.9831Z" fill="#1C252C"/>
<path d="M28.6235 7.51389H20.4204L28.6235 21.507L32.7078 14.4934L28.6235 7.51389Z" fill="#1C252C"/>
<path d="M16.3407 14.4932L20.4249 7.51372L16.3407 0.500031H8.17215L4.08789 7.51372L8.17215 14.5274M12.2564 14.4932L10.2143 11.0035L12.2564 7.51372L16.3407 14.5274" fill="#F6A61C"/>
<path d="M20.4251 21.5068L24.5093 28.4863H20.4251L18.3829 24.9965L16.3408 28.4863L20.4251 35.5H28.6282L32.7125 28.4863L28.6282 21.5068H20.4251Z" fill="#F6A61C"/>
</svg>
