<svg width="119" height="24" viewBox="0 0 119 24" fill="none" xmlns="http://www.w3.org/2000/svg">
<g clip-path="url(#clip0_6014_4162)">
<path d="M37.5129 19.1906L36.4337 16.0703H31.4132L30.3106 19.1906H27.2842L32.7739 4.80933H35.12L40.5393 19.1906H37.5129ZM33.9469 8.72721L32.2343 13.5131H35.6126L33.9469 8.72721Z" fill="#1C252C"/>
<path d="M53.6537 4.80933H56.4925V19.1906H54.5218L47.0614 10.3694V19.1906H44.2227V4.80933H46.0526L53.6537 13.7008V4.80933Z" fill="#1C252C"/>
<path d="M64.422 7.60112H60.3164V4.80933H71.4601V7.60112H67.3545V19.214H64.4454V7.60112H64.422Z" fill="#1C252C"/>
<path d="M75.2607 19.1906V4.80933H85.0203V7.50727H78.1698V10.604H84.5276V13.302H78.1698V16.5395H85.0203V19.2375H75.2607V19.1906Z" fill="#1C252C"/>
<path d="M90.3224 17.3137C88.8913 15.8826 88.1875 14.1466 88.1875 12.0586C88.1875 9.97062 88.9148 8.21109 90.3459 6.73309C91.8004 5.27854 93.5834 4.55127 95.6714 4.55127C97.7828 4.55127 99.5423 5.27854 100.997 6.73309C102.451 8.18763 103.179 9.94716 103.179 12.0117C103.179 14.0762 102.451 15.8357 100.997 17.2668C99.5658 18.6979 97.7828 19.4252 95.6714 19.4252C93.5365 19.4252 91.73 18.7214 90.3224 17.3137ZM98.862 8.72722C97.994 7.85919 96.9382 7.41344 95.6714 7.41344C94.4045 7.41344 93.3488 7.85919 92.4808 8.72722C91.6127 9.59526 91.167 10.7214 91.167 12.0117C91.167 13.302 91.5893 14.4046 92.4573 15.2727C93.3253 16.1407 94.4045 16.5865 95.6714 16.5865C96.9382 16.5865 98.0174 16.1642 98.8854 15.2727C99.7535 14.4046 100.199 13.302 100.176 12.0117C100.176 10.6979 99.73 9.59526 98.862 8.72722Z" fill="#1C252C"/>
<path d="M115.777 4.80933H118.616V19.1906H116.645L109.184 10.3694V19.1906H106.346V4.80933H108.176L115.777 13.7008V4.80933Z" fill="#1C252C"/>
<path d="M11.073 9.59521H8.30469L12.4572 16.7976L13.8413 14.4046L11.073 9.59521Z" fill="#1C252C"/>
<path d="M2.76833 14.4048L0 19.1907H5.53666L2.76833 14.4048Z" fill="#1C252C"/>
<path d="M4.15234 11.9882L8.30484 19.1905H11.0732L5.53651 9.59521L4.15234 11.9882Z" fill="#1C252C"/>
<path d="M19.4019 4.80933H13.8418L19.4019 14.4046L22.1702 9.59525L19.4019 4.80933Z" fill="#1C252C"/>
<path d="M11.0726 9.59531L13.8409 4.80938L11.0726 0H5.53591L2.76758 4.80938L5.53591 9.61877M8.30424 9.59531L6.92007 7.20235L8.30424 4.80938L11.0726 9.61877" fill="#F6A61C"/>
<path d="M13.8416 14.4048L16.6099 19.1907H13.8416L12.4574 16.7977L11.0732 19.1907L13.8416 24.0001H19.4017L22.17 19.1907L19.4017 14.4048H13.8416Z" fill="#F6A61C"/>
</g>
<defs>
<clipPath id="clip0_6014_4162">
<rect width="118.616" height="24" fill="white"/>
</clipPath>
</defs>
</svg>
