<svg width="136" height="23" viewBox="0 0 136 23" fill="none" xmlns="http://www.w3.org/2000/svg">
<path d="M15.8034 22.0038L14.2112 17.4534H6.80417L5.17739 22.0038H0.712402L8.81169 1.03116H12.2729L20.2684 22.0038H15.8034ZM10.5423 6.74475L8.0156 13.7242H12.9998L10.5423 6.74475Z" fill="#1C252C"/>
<path d="M39.6158 1.03098H43.8039V22.0036H40.8965L29.8898 9.13948V22.0036H25.7017V1.03098H28.4014L39.6158 13.9977V1.03098Z" fill="#1C252C"/>
<path d="M55.5015 5.10233H49.4443V1.03098H65.8852V5.10233H59.828V22.0378H55.5361V5.10233H55.5015Z" fill="#1C252C"/>
<path d="M71.4946 22.0036V1.03098H85.8934V4.96548H75.7866V9.48161H85.1665V13.4161H75.7866V18.1375H85.8934V22.072H71.4946V22.0036Z" fill="#1C252C"/>
<path d="M93.7137 19.2664C91.6023 17.1794 90.564 14.6476 90.564 11.6026C90.564 8.55768 91.637 5.99169 93.7483 3.83627C95.8943 1.71506 98.5248 0.654449 101.605 0.654449C104.72 0.654449 107.316 1.71506 109.462 3.83627C111.608 5.95748 112.681 8.52346 112.681 11.5342C112.681 14.545 111.608 17.111 109.462 19.198C107.351 21.2849 104.72 22.3456 101.605 22.3456C98.4556 22.3456 95.7904 21.3192 93.7137 19.2664ZM106.313 6.74438C105.032 5.4785 103.474 4.82845 101.605 4.82845C99.7362 4.82845 98.1787 5.4785 96.898 6.74438C95.6174 8.01027 94.9597 9.6525 94.9597 11.5342C94.9597 13.4159 95.5828 15.024 96.8634 16.2898C98.1441 17.5557 99.7362 18.2058 101.605 18.2058C103.474 18.2058 105.067 17.5899 106.347 16.2898C107.628 15.024 108.285 13.4159 108.251 11.5342C108.251 9.61828 107.593 8.01027 106.313 6.74438Z" fill="#1C252C"/>
<path d="M131.272 1.03098H135.46V22.0036H132.553L121.546 9.13948V22.0036H117.358V1.03098H120.058L131.272 13.9977V1.03098Z" fill="#1C252C"/>
</svg>
