<svg xmlns="http://www.w3.org/2000/svg" width="48" height="48" fill="none" viewBox="0 0 48 48">
  <rect width="48" height="48" fill="#326CE5" rx="24"/>
  <circle cx="17" cy="17" r="3" fill="#fff"/>
  <circle cx="31" cy="31" r="3" fill="#fff"/>
  <path fill="#fff" fill-rule="evenodd" d="M22.25 17a.75.75 0 0 1 .75-.75h5.132c2.751 0 3.797 3.593 1.476 5.07l-10.41 6.625c-1.056.672-.58 2.305.67 2.305h3.321l-.22-.22a.75.75 0 1 1 1.061-1.06l1.5 1.5a.75.75 0 0 1 0 1.06l-1.5 1.5a.75.75 0 1 1-1.06-1.06l.22-.22h-3.322c-2.751 0-3.797-3.593-1.476-5.07l10.411-6.625c1.055-.672.58-2.305-.671-2.305H23a.75.75 0 0 1-.75-.75Z" clip-rule="evenodd"/>
</svg>
