<svg width="20" height="20" viewBox="0 0 20 20" fill="none" xmlns="http://www.w3.org/2000/svg">
<path fill-rule="evenodd" clip-rule="evenodd" d="M9.95214 1.04102L11.25 1.04102C11.5951 1.04102 11.875 1.32084 11.875 1.66602C11.875 2.01119 11.5951 2.29102 11.25 2.29102H9.99996C8.01811 2.29102 6.59459 2.29234 5.51127 2.43799C4.44594 2.58122 3.80367 2.85363 3.32896 3.32835C2.85424 3.80306 2.58183 4.44533 2.4386 5.51066C2.29295 6.59398 2.29163 8.01749 2.29163 9.99935C2.29163 11.9812 2.29295 13.4047 2.4386 14.488C2.58183 15.5534 2.85424 16.1956 3.32896 16.6704C3.80367 17.1451 4.44594 17.4175 5.51127 17.5607C6.59459 17.7064 8.01811 17.7077 9.99996 17.7077C11.9818 17.7077 13.4053 17.7064 14.4886 17.5607C15.554 17.4175 16.1962 17.1451 16.671 16.6704C17.1457 16.1956 17.4181 15.5534 17.5613 14.488C17.707 13.4047 17.7083 11.9812 17.7083 9.99935V8.74935C17.7083 8.40417 17.9881 8.12435 18.3333 8.12435C18.6785 8.12435 18.9583 8.40417 18.9583 8.74935V10.0472C18.9583 11.9708 18.9583 13.4784 18.8002 14.6546C18.6383 15.8585 18.3005 16.8086 17.5548 17.5542C16.8092 18.2999 15.8592 18.6377 14.6552 18.7996C13.479 18.9577 11.9714 18.9577 10.0478 18.9577H9.95215C8.02849 18.9577 6.52095 18.9577 5.34471 18.7996C4.14077 18.6377 3.19075 18.2999 2.44507 17.5542C1.6994 16.8086 1.36161 15.8585 1.19975 14.6546C1.04161 13.4784 1.04162 11.9708 1.04163 10.0472V9.95153C1.04162 8.02787 1.04161 6.52034 1.19975 5.3441C1.36161 4.14016 1.6994 3.19014 2.44507 2.44446C3.19075 1.69879 4.14077 1.361 5.34471 1.19914C6.52095 1.041 8.02848 1.04101 9.95214 1.04102ZM13.9754 1.89594C15.1153 0.75604 16.9635 0.75604 18.1034 1.89594C19.2433 3.03585 19.2433 4.884 18.1034 6.02391L12.5633 11.564C12.2539 11.8734 12.0601 12.0673 11.8438 12.236C11.589 12.4347 11.3134 12.605 11.0217 12.744C10.7741 12.862 10.5141 12.9487 10.0989 13.087L7.67851 13.8938C7.23164 14.0428 6.73896 13.9265 6.40589 13.5934C6.07281 13.2603 5.9565 12.7677 6.10546 12.3208L6.91227 9.90037C7.05062 9.48523 7.13728 9.22518 7.25529 8.97756C7.39428 8.68591 7.56463 8.41028 7.76333 8.15553C7.93203 7.93924 8.12588 7.74542 8.43533 7.43601L13.9754 1.89594ZM17.2195 2.77983C16.5677 2.12808 15.511 2.12808 14.8593 2.77983L14.5454 3.09368C14.5644 3.17356 14.5908 3.26874 14.6277 3.3749C14.7471 3.71912 14.9731 4.17244 15.4 4.59934C15.8269 5.02624 16.2802 5.25224 16.6244 5.37166C16.7306 5.40849 16.8257 5.43495 16.9056 5.45387L17.2195 5.14002C17.8712 4.48827 17.8712 3.43158 17.2195 2.77983ZM15.9209 6.43859C15.4909 6.25368 14.9901 5.95723 14.5161 5.48323C14.0421 5.00922 13.7456 4.50837 13.5607 4.0784L9.34788 8.29123C9.00079 8.63833 8.86466 8.77598 8.74897 8.92431C8.60611 9.10747 8.48363 9.30564 8.38369 9.51533C8.30276 9.68515 8.24052 9.86846 8.0853 10.3341L7.72538 11.4139L8.58543 12.2739L9.66517 11.914C10.1308 11.7588 10.3142 11.6965 10.484 11.6156C10.6937 11.5157 10.8918 11.3932 11.075 11.2503C11.2233 11.1346 11.361 10.9985 11.7081 10.6514L15.9209 6.43859Z" fill="#6D6D6D"/>
</svg>
