<svg width="20" height="21" viewBox="0 0 20 21" fill="none" xmlns="http://www.w3.org/2000/svg">
<path d="M6.21066 2.76088C6.52296 1.96903 7.64362 1.96903 7.95593 2.76088L8.92372 5.21476C9.01907 5.45652 9.21044 5.64788 9.45219 5.74323L11.9061 6.71103C12.6979 7.02333 12.6979 8.14399 11.9061 8.45629L9.45219 9.42409C9.21044 9.51943 9.01907 9.7108 8.92372 9.95256L7.95592 12.4064C7.64362 13.1983 6.52296 13.1983 6.21066 12.4064L5.24286 9.95256C5.14752 9.7108 4.95615 9.51943 4.71439 9.42409L2.26051 8.45629C1.46866 8.14399 1.46866 7.02333 2.26051 6.71102L4.71439 5.74323C4.95615 5.64788 5.14752 5.45651 5.24286 5.21476L6.21066 2.76088Z" fill="url(#paint0_linear_3550_2505)"/>
<path d="M14.1038 11.6594C14.2754 11.2242 14.8913 11.2242 15.0629 11.6594L15.8135 13.5625C15.8659 13.6953 15.9711 13.8005 16.1039 13.8529L18.007 14.6035C18.4422 14.7751 18.4422 15.3909 18.007 15.5626L16.1039 16.3131C15.9711 16.3655 15.8659 16.4707 15.8135 16.6036L15.0629 18.5066C14.8913 18.9418 14.2754 18.9418 14.1038 18.5066L13.3533 16.6036C13.3009 16.4707 13.1957 16.3655 13.0628 16.3131L11.1597 15.5626C10.7246 15.3909 10.7246 14.7751 11.1597 14.6035L13.0628 13.8529C13.1957 13.8005 13.3009 13.6953 13.3533 13.5625L14.1038 11.6594Z" fill="url(#paint1_linear_3550_2505)"/>
<defs>
<linearGradient id="paint0_linear_3550_2505" x1="1.88524" y1="3.82516" x2="12.6664" y2="4.02513" gradientUnits="userSpaceOnUse">
<stop stop-color="#FF1CF7"/>
<stop offset="1" stop-color="#00F0FF"/>
</linearGradient>
<linearGradient id="paint1_linear_3550_2505" x1="10.9847" y1="12.481" x2="18.4486" y2="12.6194" gradientUnits="userSpaceOnUse">
<stop stop-color="#FF1CF7"/>
<stop offset="1" stop-color="#00F0FF"/>
</linearGradient>
</defs>
</svg>
